<svg width="42" height="41" viewBox="0 0 42 41" fill="none" xmlns="http://www.w3.org/2000/svg">
<path d="M21.0002 0C9.40362 0 0 9.41031 0 21.019C0 30.3057 6.01719 38.1846 14.3612 40.9639C15.4107 41.1584 15.796 40.5079 15.796 39.9527C15.796 39.4515 15.7766 37.7958 15.7675 36.0394C9.92525 37.3109 8.69246 33.5595 8.69246 33.5595C7.73718 31.13 6.36077 30.484 6.36077 30.484C4.45543 29.1794 6.50439 29.2062 6.50439 29.2062C8.61317 29.3545 9.72355 31.3722 9.72355 31.3722C11.5966 34.5856 14.6363 33.6566 15.8346 33.1195C16.0231 31.761 16.5674 30.8338 17.1679 30.3089C12.5035 29.7774 7.60017 27.9751 7.60017 19.9212C7.60017 17.6264 8.42052 15.7514 9.76389 14.2794C9.54585 13.75 8.82704 11.6122 9.96733 8.71696C9.96733 8.71696 11.7308 8.15205 15.7439 10.8715C17.419 10.4058 19.2155 10.1722 21.0002 10.1642C22.7848 10.1722 24.5827 10.4058 26.261 10.8715C30.2692 8.15205 32.0302 8.71696 32.0302 8.71696C33.1733 11.6122 32.4542 13.75 32.2361 14.2794C33.5826 15.7514 34.3974 17.6264 34.3974 19.9212C34.3974 27.9942 29.4847 29.7718 24.8084 30.2922C25.5617 30.9444 26.2328 32.2236 26.2328 34.1846C26.2328 36.997 26.2085 39.2604 26.2085 39.9527C26.2085 40.5121 26.5865 41.1675 27.651 40.9611C35.9905 38.1787 42 30.3026 42 21.019C42 9.41031 32.5978 0 21.0002 0ZM7.86525 29.942C7.819 30.0464 7.65486 30.0778 7.50532 30.0061C7.35301 29.9375 7.26746 29.7951 7.31684 29.6904C7.36205 29.5828 7.52654 29.5529 7.6785 29.6249C7.83117 29.6935 7.91811 29.8372 7.86525 29.942ZM8.89822 30.8646C8.79807 30.9575 8.60228 30.9143 8.46944 30.7674C8.33208 30.6209 8.30635 30.4249 8.40789 30.3306C8.51117 30.2377 8.70105 30.2812 8.83876 30.4277C8.97612 30.576 9.0029 30.7706 8.89822 30.8646ZM9.60688 32.0449C9.47821 32.1344 9.26782 32.0505 9.13776 31.8636C9.00909 31.6766 9.00909 31.4525 9.14054 31.3627C9.27095 31.2729 9.47821 31.3536 9.61001 31.5392C9.73833 31.7292 9.73833 31.9534 9.60688 32.0449ZM10.8054 33.4119C10.6903 33.539 10.4451 33.5049 10.2657 33.3315C10.0821 33.162 10.0309 32.9215 10.1464 32.7945C10.2629 32.6671 10.5094 32.7029 10.6903 32.8749C10.8725 33.044 10.9281 33.2863 10.8054 33.4119ZM12.3543 33.8734C12.3035 34.038 12.0674 34.1129 11.8296 34.0429C11.592 33.9709 11.4366 33.778 11.4846 33.6117C11.534 33.446 11.7711 33.368 12.0107 33.4429C12.2479 33.5146 12.4037 33.706 12.3543 33.8734ZM14.1171 34.0692C14.123 34.2425 13.9213 34.3863 13.6716 34.3894C13.4205 34.395 13.2174 34.2547 13.2147 34.0841C13.2147 33.9091 13.4118 33.7667 13.6629 33.7625C13.9126 33.7576 14.1171 33.8969 14.1171 34.0692ZM15.8488 34.0027C15.8787 34.1719 15.7052 34.3456 15.4572 34.3919C15.2134 34.4364 14.9878 34.332 14.9568 34.1642C14.9265 33.9909 15.1032 33.8172 15.3466 33.7723C15.5949 33.7291 15.8171 33.8308 15.8488 34.0027Z" fill="white"/>
</svg>
