<svg width="74" height="74" viewBox="0 0 74 74" fill="none" xmlns="http://www.w3.org/2000/svg">
<path fill-rule="evenodd" clip-rule="evenodd" d="M44.2463 44.2463C45.8246 42.6679 48.3837 42.6679 49.9621 44.2463L72.1912 66.4754C73.7696 68.0538 73.7696 70.6129 72.1912 72.1912C70.6129 73.7696 68.0538 73.7696 66.4754 72.1912L44.2463 49.9621C42.6679 48.3837 42.6679 45.8246 44.2463 44.2463Z" fill="#808080"/>
<path fill-rule="evenodd" clip-rule="evenodd" d="M28.9167 8.70833C17.7559 8.70833 8.70833 17.7559 8.70833 28.9167C8.70833 40.0774 17.7559 49.125 28.9167 49.125C40.0774 49.125 49.125 40.0774 49.125 28.9167C49.125 17.7559 40.0774 8.70833 28.9167 8.70833ZM0.625 28.9167C0.625 13.2916 13.2916 0.625 28.9167 0.625C44.5417 0.625 57.2083 13.2916 57.2083 28.9167C57.2083 44.5417 44.5417 57.2083 28.9167 57.2083C13.2916 57.2083 0.625 44.5417 0.625 28.9167Z" fill="#808080"/>
</svg>
